# xmcd CD database file generated by Grip 3.2.0
# 
# Track frame offsets:
#       150
#       26582
#       61752
#       86813
#       113681
#       139042
#       163663
#       191407
# 
# Disc length: 2825 seconds
# 
# Revision: 1
# Processed by: cddbd v1.5.2PL0 Copyright (c) Steve Scherf et al.
# Submitted via: Grip 3.2.0
# 
DISCID=610b0708
DTITLE=Fiebre Latina - Demo - Not For Production (Promo)
DYEAR=2001
DGENRE=Latin
TTITLE0=Reflejos
TTITLE1=Tres
TTITLE2=O sea
TTITLE3=Enganado
TTITLE4=Fiebre latina
TTITLE5=Recordando mi futuro
TTITLE6=Patricia
TTITLE7=Raìces
EXTD=YEAR: 2001
EXTT0=
EXTT1=
EXTT2=
EXTT3=
EXTT4=
EXTT5=
EXTT6=
EXTT7=
PLAYORDER=
